<?xml version="1.0" standalone="no"?>
<!DOCTYPE svg PUBLIC "-//W3C//DTD SVG 20010904//EN"
 "http://www.w3.org/TR/2001/REC-SVG-20010904/DTD/svg10.dtd">
<svg version="1.0" xmlns="http://www.w3.org/2000/svg"
 width="294.000000pt" height="294.000000pt" viewBox="0 0 294.000000 294.000000"
 preserveAspectRatio="xMidYMid meet">
<metadata>
Created by potrace 1.11, written by Peter Selinger 2001-2013
</metadata>
<g transform="translate(0.000000,294.000000) scale(0.100000,-0.100000)"
fill="#000000" stroke="none">
<path d="M0 1470 l0 -1470 1470 0 1470 0 0 1470 0 1470 -1470 0 -1470 0 0
-1470z m1093 275 c103 -259 192 -481 196 -495 19 -59 104 -227 129 -254 31
-32 80 -56 117 -56 22 0 25 -4 25 -35 l0 -35 -286 0 -285 0 3 33 c3 31 5 32
54 38 92 11 117 39 103 115 -8 42 -315 873 -327 886 -4 4 -29 -48 -57 -115
-27 -67 -57 -141 -66 -164 l-18 -41 -41 10 c-32 8 -40 14 -35 27 3 9 54 139
113 289 l107 273 40 -3 39 -3 189 -470z m581 47 c93 -235 174 -440 181 -457 7
-16 18 -46 26 -65 25 -68 101 -226 125 -262 26 -38 84 -68 129 -68 22 0 25 -4
25 -35 l0 -35 -270 0 -270 0 0 35 c0 31 3 35 25 35 41 0 95 27 104 52 4 12 6
38 4 58 -5 36 -78 239 -91 252 -4 4 -80 8 -170 8 -132 2 -162 4 -162 16 0 8
-9 14 -20 14 -20 0 -42 33 -54 83 -5 22 -4 28 6 24 7 -2 12 -10 10 -16 -1 -6
2 -11 8 -11 5 0 10 7 10 16 0 8 4 13 9 10 5 -4 59 -7 120 -8 60 -1 108 -5 105
-10 -3 -5 -2 -8 3 -7 4 1 10 0 13 -1 18 -7 52 -5 57 3 4 6 -5 8 -21 5 -14 -3
-29 -1 -32 3 -3 5 11 9 31 9 25 0 36 4 33 13 -27 82 -184 497 -188 497 -3 0
-41 -91 -84 -203 -43 -111 -82 -206 -86 -210 -4 -4 -17 18 -29 49 l-21 56 71
182 c39 99 75 190 79 201 5 11 23 56 40 100 40 101 35 95 78 95 l37 0 169
-428z m484 290 c29 -75 57 -146 62 -157 6 -11 78 -191 161 -399 170 -428 196
-486 247 -538 28 -30 46 -39 84 -44 47 -6 48 -8 48 -40 l0 -34 -270 0 -269 0
1 34 c1 33 3 34 48 40 61 8 85 33 83 89 -1 26 -37 136 -94 287 -98 261 -109
291 -185 498 -27 72 -51 132 -54 132 -3 0 -41 -91 -84 -203 -43 -111 -82 -206
-86 -210 -4 -4 -16 17 -28 48 l-22 56 24 62 c42 109 198 502 203 510 2 4 21 7
41 7 l37 0 53 -138z m-1635 -354 c2 -7 -2 -26 -8 -43 -26 -64 -29 -80 -17 -80
4 -1 24 -7 45 -14 21 -7 45 -10 53 -7 9 3 12 1 9 -4 -3 -6 3 -10 14 -10 10 0
41 -9 67 -20 26 -12 54 -18 61 -16 9 4 11 1 7 -6 -5 -8 2 -9 22 -4 17 4 24 3
16 -2 -11 -7 42 -28 123 -48 17 -4 18 -3 5 6 -12 9 -10 10 10 4 30 -8 24 0 43
-56 l16 -47 -32 6 c-64 11 -235 53 -357 87 -68 20 -126 33 -129 31 -2 -3 -2
-6 0 -8 5 -4 256 -78 279 -82 8 -2 44 -11 80 -20 69 -18 95 -31 45 -22 -46 9
-63 13 -160 40 -204 58 -240 69 -250 77 -11 9 -15 -6 -18 -67 -1 -21 -8 -34
-19 -36 -24 -7 -29 17 -14 55 33 77 25 113 -27 131 -10 4 -15 11 -12 17 4 6
-8 10 -29 10 -20 0 -36 -2 -36 -5 0 -2 17 -13 39 -24 35 -18 62 -51 42 -51 -4
0 -40 11 -79 24 -106 36 -122 36 -141 2 -24 -43 -47 -54 -68 -34 -13 14 -15
24 -7 54 19 76 106 101 248 69 72 -16 76 -18 61 -35 -14 -16 -14 -17 7 -15 13
1 26 3 29 4 11 2 39 68 43 99 5 46 28 70 39 40z m2311 -100 c-30 -34 -153
-110 -166 -102 -6 4 -8 3 -5 -4 7 -10 -134 -67 -192 -77 -26 -4 -30 -1 -50 47
-12 28 -20 52 -18 54 6 6 372 72 377 68 2 -3 -7 -15 -21 -27 -30 -26 -6 -12
34 20 35 29 26 29 -99 8 -49 -9 -102 -18 -119 -21 -16 -2 -55 -9 -86 -15 -31
-6 -65 -9 -75 -7 -15 3 370 73 425 77 10 1 9 -5 -5 -21z m-677 -104 c-3 -3 3
-31 15 -61 11 -30 18 -56 16 -59 -4 -4 -272 -54 -289 -54 -8 0 -41 81 -36 87
3 2 17 6 33 9 107 18 134 27 129 46 -5 15 -2 17 22 12 15 -3 46 1 68 9 50 18
50 18 42 11z m-1604 -94 c42 -1 41 -16 -17 -170 -57 -151 -74 -226 -62 -273 6
-26 22 -36 71 -43 50 -8 55 -12 55 -44 l0 -30 -210 0 -210 0 0 35 c0 29 4 35
22 35 39 0 109 41 133 79 13 20 56 117 95 216 40 99 74 186 77 193 3 7 12 11
20 8 8 -3 20 -6 26 -6z m435 -75 c10 -10 -61 5 -72 15 -5 5 8 5 29 0 20 -4 40
-11 43 -15z m1200 20 c-5 -6 -180 -41 -253 -51 -55 -7 -59 2 -4 11 19 3 79 14
134 24 109 21 131 24 123 16z m-871 -51 c-3 -3 -12 -4 -19 -1 -8 3 -5 6 6 6
11 1 17 -2 13 -5z"/>
<path d="M1100 1370 c0 -5 5 -10 11 -10 5 0 7 5 4 10 -3 6 -8 10 -11 10 -2 0
-4 -4 -4 -10z"/>
<path d="M1101 1324 c0 -11 3 -14 6 -6 3 7 2 16 -1 19 -3 4 -6 -2 -5 -13z"/>
<path d="M1301 1426 c7 -8 108 -10 115 -3 4 4 -21 7 -56 7 -35 0 -61 -2 -59
-4z"/>
<path d="M1466 1418 c3 -5 10 -6 15 -3 13 9 11 12 -6 12 -8 0 -12 -4 -9 -9z"/>
<path d="M1353 1328 c7 -4 77 -7 157 -6 161 2 140 6 -47 10 -66 2 -116 0 -110
-4z"/>
<path d="M490 1585 c0 -2 9 -13 20 -23 l21 -19 -26 4 c-26 6 -59 -13 -49 -28
3 -5 15 -2 28 6 13 9 30 13 39 9 9 -3 24 1 32 10 14 14 12 17 -21 31 -40 16
-44 17 -44 10z"/>
</g>
</svg>
